<?xml version="1.0" encoding="utf-8"?>
<!-- Generator: Adobe Illustrator 25.2.0, SVG Export Plug-In . SVG Version: 6.00 Build 0)  -->
<svg version="1.1" id="Capa_1" xmlns="http://www.w3.org/2000/svg" xmlns:xlink="http://www.w3.org/1999/xlink" x="0px" y="0px"
	 viewBox="0 0 747 547" style="enable-background:new 0 0 747 547;" xml:space="preserve">
<style type="text/css">
	.st0{opacity:8.454241e-02;fill:#7367F0;enable-background:new    ;}
	.st1{opacity:7.026599e-02;fill-rule:evenodd;clip-rule:evenodd;fill:#00CFE8;enable-background:new    ;}
	.st2{opacity:7.393973e-02;fill-rule:evenodd;clip-rule:evenodd;fill:#00CFE8;enable-background:new    ;}
	.st3{fill:#227D35;}
	.st4{fill:#EFEFFA;}
	.st5{fill:#FDFDFD;}
	.st6{fill:#B0B7DE;}
	.st7{fill:#FF8995;}
	.st8{fill:#F8A580;}
	.st9{fill:#B67A60;}
	.st10{fill:#6B758B;}
	.st11{fill:#954C36;}
	.st12{fill:#6B2F27;}
	.st13{fill:#4C5464;}
	.st14{fill:#B47153;}
	.st15{fill:#5D749B;}
	.st16{fill:#815544;}
	.st17{fill:#7A87D3;}
	.st18{fill:#ACC3F8;}
	.st19{fill:#465EEC;}
	.st20{fill:#74492A;}
	.st21{fill:#EEEEEE;}
	.st22{fill:#6E4227;}
	.st23{fill:#FFCBA5;}
	.st24{fill:#F9BD9B;}
	.st25{fill:#E8AFDE;}
	.st26{fill:#7B8EFF;}
	.st27{fill:#74B39C;}
	.st28{fill:#FCFCFC;}
	.st29{fill:#7B3829;}
	.st30{fill:#27364C;}
	.st31{fill:#425370;}
</style>
<g id="_xD83D__xDCDD_-Pages-New">
	<g id="Login-" transform="translate(-113.000000, -271.000000)">
		<g id="Illustration" transform="translate(113.500000, 271.500000)">
			<g id="Shape" transform="translate(0.500000, 0.500000)">
				<g id="Group-59" transform="translate(0.000000, 0.818995)">
					<path id="Path" class="st0" d="M673.3,164.4c9.4-12.5,27.1-15.1,39.7-5.7c12.4,9.3,15,26.8,6,39.3l-0.3,0.4l-74.3,99.2
						c-9.5,12.6-27,15.8-40.3,7.4l-0.4-0.3l-46.8-30.6l-47.2,68.6c-8.8,12.8-26.1,16.1-39,7.6l-0.4-0.3c-12.8-8.8-16.1-26.1-7.6-39
						l0.3-0.4l61.8-90c9.2-13.4,27.3-17.1,41-8.4l0.4,0.3l47.6,31.2L673.3,164.4z"/>
					<path id="Path_1_" class="st0" d="M430.1,3.5c2.4-3.5,7.1-4.3,10.6-2c3.4,2.3,4.3,7,2.1,10.4l-0.1,0.1L424.1,39
						c-2.7,3.8-8,4.7-11.8,2.1l-0.1-0.1l-10.6-7.6L390,51.6c-2.2,3.5-6.8,4.6-10.4,2.5l-0.1-0.1c-3.5-2.2-4.6-6.8-2.5-10.3l0.1-0.1
						l15.3-24.2c2.5-4,7.8-5.2,11.8-2.7l0.2,0.1l0.2,0.1l10.9,7.7L430.1,3.5z"/>
					<path id="_x2B_" class="st1" d="M634.9,127v-18l0,0h18c1.4,0,2.5-1.1,2.5-2.5v-8.7c0-1.4-1.1-2.5-2.5-2.5h-18l0,0V77.2
						c0-1.4-1.1-2.5-2.5-2.5h-8.8c-1.4,0-2.5,1.1-2.5,2.5v18.1l0,0h-18c-1.4,0-2.5,1.1-2.5,2.5v8.7c0,1.4,1.1,2.5,2.5,2.5h18l0,0v18
						c0,1.4,1.1,2.5,2.5,2.5h8.8C633.8,129.5,634.9,128.4,634.9,127z"/>
					<path id="Oval" class="st2" d="M91.6,20.2c50.6,0,91.6,41,91.6,91.6s-41,91.6-91.6,91.6S0,162.3,0,111.7S41,20.2,91.6,20.2z
						 M91.6,65.5c-25.6,0-46.3,20.7-46.3,46.2S66,158,91.6,158s46.3-20.7,46.3-46.2S117.2,65.5,91.6,65.5z"/>
				</g>
			</g>
		</g>
	</g>
</g>
<g>
	<g>
		<path class="st3" d="M496.7,391.7c-0.3,0.5-0.6,0.7-1.1,0.5c0,0,0-0.1,0-0.1C495.8,391.6,496.2,391.4,496.7,391.7
			C496.7,391.6,496.7,391.7,496.7,391.7z"/>
		<g>
			<rect x="214.3" y="277.1" class="st4" width="184.4" height="226.4"/>
			<g>
				<g>
					<g>
						<path class="st5" d="M293.5,326.8c0,4.7-1.1,9.1-3.2,13.1c-6-2.4-14.5-3.9-24-3.9c-10.8,0-20.4,2-26.3,5
							c-2.4-4.2-3.7-9-3.7-14.1c0-15.8,12.8-28.6,28.6-28.6C280.7,298.2,293.5,311,293.5,326.8z"/>
						<path class="st6" d="M290.3,339.8c-4.7,9.2-14.3,15.5-25.4,15.5c-10.6,0-19.9-5.8-24.8-14.4c5.9-3,15.5-5,26.3-5
							C275.8,335.9,284.3,337.4,290.3,339.8z"/>
						<g>
							<path class="st7" d="M257,327.7c-3.5,1-6.5-0.5-7.8-4c-1.6-4.2-0.8-8.2,2.5-9.1c2.5-0.7,2.8-2.2,3.5-4.1
								c1.7-5.2,5.8-7.3,10.8-7.9c4.9-0.6,8.5,1.9,11.2,5.9c0.5,0.8,1.5,6.8,0.8,9.5c-1-1.8-1.8-1.4-2.8-0.6
								c-3.1,2.4-6.9,3.4-10.6,4.4c-1.6,0.4-2.8,0.1-3.1-1.8c-0.2-0.9-0.7-1.7-1.7-1.5c-1.1,0.2-0.8,1.3-0.8,2.1
								c0,0.6,0.3,1.2,0.6,1.8c1.1,2.5,0.6,3.7-1.8,5C257.5,327.4,257.2,327.5,257,327.7z"/>
							<path class="st8" d="M277.3,315c-3.7,3.3-7.9,4.8-12.3,6c-0.1,0-0.3,0.1-0.4,0.1c-0.1-2.2-1.9-4-4.2-4
								c-2.3,0-4.2,1.9-4.2,4.2c0,1.9,1.3,3.6,3.1,4c-0.3,0.5-0.8,0.9-1.3,1.4c-0.4,0.3-0.9,0.5-1.1,1c1.1-0.3,1.7-0.3,1.8,1.2
								c0.3,3,0.4,6-1.4,8.6c1.7,4.2,4.8,7.3,8.6,9.5c2.9,1.8,5.1,0.3,5.2-3.2c0-1.1-0.8-4.1-1.2-6.5c-0.3-1.6-0.3-2.9,0.2-3.2
								c0,0,0.1,0,0.2,0c1.7-0.1,2.8-1.3,3.6-2.6c2.3-3.8,3-13,3.2-13.6c0.2-0.7,0.3-1.5,0.4-2.2C277.4,315.5,277.3,315.2,277.3,315
								z"/>
							<path class="st9" d="M269.9,337.4c-0.5-0.2-0.9-0.5-1.4-0.7c-3.5-1.6-5.7-3.8-6.7-6.5c1.8,1.9,3.5,2.7,4.8,3.1
								c1.5,0.4,2.6,0.3,3.4,0.9C269.6,334.4,269.7,335.8,269.9,337.4z"/>
						</g>
					</g>
					<g>
						<path class="st5" d="M293.5,450.9c0,4.4-1,8.5-2.7,12.2c-1.7,3.5-4.1,6.7-7,9.2c-3.5,3.1-7.7,5.3-12.4,6.4
							c-2.1,0.5-4.2,0.7-6.4,0.7c-0.6,0-1.3,0-1.9-0.1h0c-0.5,0-1-0.1-1.5-0.2c-1.3-0.1-2.5-0.4-3.7-0.7c-3.7-1-7.1-2.6-10.1-4.9
							c-3.3-2.5-6-5.7-8-9.4c-2.1-4-3.3-8.6-3.3-13.4c0-15.8,12.8-28.6,28.6-28.6S293.5,435.1,293.5,450.9z"/>
						<path class="st10" d="M290.7,463.1c-1.7,3.5-4.1,6.7-7,9.2c-3.5,3.1-7.7,5.3-12.4,6.4c-2.1,0.5-4.2,0.7-6.4,0.7
							c-0.6,0-1.3,0-1.9-0.1h0c-0.5,0-1-0.1-1.5-0.2c-1.3-0.1-2.5-0.4-3.7-0.7c-3.7-1-7.1-2.6-10.1-4.9c-3.3-2.5-6-5.7-8-9.4
							c3.5-1.3,7.9-2.4,12.8-3.2c1.7-0.3,3.5-0.5,5.4-0.6c0.1,0,0.1,0,0.2,0c2.8-0.2,5.8-0.4,8.9-0.4h0.4c5.9,0,11.5,0.5,16.5,1.4
							C286.2,461.9,288.6,462.5,290.7,463.1z"/>
						<path class="st11" d="M258,467.7c-0.6-0.9-0.2-2.1-0.4-4.1c-0.2-1.7,0.4-3.4,0.5-5.1c0-1.1,0-1.9-0.9-2.7
							c-1.4-1.2-2.3-2.8-2.9-4.5c-0.5-1.3-0.8-2.6-1.1-3.9c-0.1-0.3,0-0.4,0.1-0.7c0.7-1.8,1.5-3.6,2.4-5.2c1.2-2,2.5-3.9,4.5-5.2
							c0.4-0.2,0.8-0.5,1.2-0.6c0.6-0.2,1.1-0.2,1.6,0.3c1.8,2.1,3.8,4,5.6,6.1c1.1,1.3,1.6,3,1.9,4.7c0.4,2.4-0.6,4.5-1.7,6.5
							c-0.1,0.2-0.2,0.5-0.3,0.7c-1.1,0.9-1.2,2.1-1.1,3.4c0.1,0.9,0,1.9,0,2.8c0,1.9,0.1,1.6,1.7,2c0.8,0.2,1.7,0.3,2.4,0.7
							c-0.1,0-0.1,0-0.2,0.1c-0.1,0.1-0.1,0.3-0.1,0.4c0,0.3-1.3,3.6-4.6,5.1C263.7,469.8,259.4,469.8,258,467.7z"/>
						<path class="st12" d="M258.8,457.1c2.5,0.8,4.8,0.6,7.1-0.8c-0.2,0.9-1.8,2-3,2.2C261.4,458.7,259.9,458.4,258.8,457.1z"/>
						<path class="st13" d="M283.7,472.4c-3.5,3.1-7.7,5.3-12.4,6.4c-0.3-0.3-0.6-0.6-0.8-1c-0.6-1-1-2.3-1.3-3.7v0
							c-0.7-3.7-0.9-8.5-2.1-13.1c-0.1-0.3-0.1-0.5-0.1-0.8c-0.3-1.7,0-3.1,0.4-4.4c0,0,0,0,0,0c0.1-0.4,0.3-0.8,0.5-1.1
							c0.9-2.1,2.3-3.9,2.6-6.6c-0.1-5.2-4.5-8.3-8.1-12.2c-3.3,0-5.6,4.5-7.2,7.2c-0.7,0.9-1.3,2.1-1.5,3.5c-0.2,1-0.1,1.9,0.1,2.9
							c0,0.1,0.1,0.3,0.1,0.4c0,0.1,0,0.2,0.1,0.3c0.7,2.3,2.3,4.4,4.6,6c-0.3,1.6-0.4,3-0.4,4.3c0,2.8,0.5,4.9,1.2,6.4
							c0.6,1.4,1.9,4,1.1,6.8c-0.2,1-0.6,1.7-1,2.2c-0.2,0.5-0.5,1.2-1,1.8c-0.2,0.3-0.5,0.6-0.7,0.8c-3.7-1-7.1-2.6-10.1-4.9
							c0.1-0.7,0.3-1.5,0.7-2.3c0.6-8.3-0.5-14.4-1.8-18.6c-0.9-2.8-2.6-7.5-0.4-10.5c0.9-1.3,1.6-0.9,2.8-2.3
							c2.9-3.2,1-6.9,2.7-9.4c2.5-3.8,12.7-4.6,18.2,0c4.5,3.8,2.9,8.8,8.1,20.2c1.9,4.2,3.9,7.4,5.3,9.6c0.2,0.4,0.3,0.7,0.5,1.1
							C285.3,465.6,285,469.3,283.7,472.4z"/>
					</g>
					<g>
						<path class="st5" d="M293.5,389.1c0,4.6-1.1,8.9-3,12.7c-4.7,9.4-14.4,15.9-25.6,15.9c-11.2,0-20.9-6.5-25.6-15.9
							c-1.9-3.8-3-8.1-3-12.7c0-15.8,12.8-28.6,28.6-28.6C280.7,360.5,293.5,373.3,293.5,389.1z"/>
						<path class="st7" d="M290.5,401.8c-4.7,9.4-14.4,15.9-25.6,15.9c-11.2,0-20.9-6.5-25.6-15.9c6.8-1.6,15.8-2.6,25.6-2.6
							C274.7,399.1,283.7,400.1,290.5,401.8z"/>
						<g>
							<path class="st14" d="M272.3,399.3c0.9,3.5-1.9,6.2-5.7,5.8c-3-0.3-8.2-4.2-8.9-4.8c-0.4-0.4-0.3-1,0.2-1.3
								c1.9-1.2,1.8-2.9,1.4-4.8c-0.2-0.9-0.1-1.8-0.1-2.7c-1.2-2.1-0.1-4.5-0.7-6.6c-0.2-0.6,0.7-1.2,1.3-1
								c1.6,0.6,1.8-0.5,2.3-1.4c0.2-0.4,0.4-0.8,0.5-1.2c0.4-2.9,2.6-3.7,5.1-3.8c1.9-0.1,3.9-0.8,5.7,0.7
								c1.4,4.9,0.8,9.8-0.5,14.7c-0.2,0.6-0.5,1.1-1.1,1.5C269.5,395.9,269.7,397.9,272.3,399.3z"/>
							<path class="st15" d="M273.3,378.1c-2.7,0-5.5-0.6-8.2,0.5c-1.1,0.4-1.6,0.9-1.9,2c-0.3,1.1-0.6,2.2-1.2,3.2
								c-0.3,0.6-0.7,1.7-1.9,0.6c-0.8-0.7-1.5,0.1-1.2,0.9c1,2.1-0.2,4.2,0.2,6.3c-3-1.4-3.2-4.4-4.2-6.9c-0.2-0.5-0.2-1.1-0.4-1.6
								c-2.4-6.3,1.3-12.3,8.2-13.2c4.2-0.5,8,0.7,11.3,3.1C276.3,374.6,276,376.9,273.3,378.1z"/>
							<path class="st16" d="M270.8,398.3c-0.5-0.2-0.9-0.5-1.4-0.7c-3.5-1.6-5.7-3.8-6.7-6.5c1.8,1.9,3.5,2.7,4.8,3.1
								c1.5,0.4,2.6,0.3,3.4,0.9C270.5,395.3,270.6,396.7,270.8,398.3z"/>
							<circle class="st14" cx="259.8" cy="385" r="2.8"/>
						</g>
					</g>
				</g>
				<path class="st7" d="M314,477.7c2.6-3.5,4.8-7,7.9-9.8c0.9-0.8,1.8-1.5,2.7-2.2c0.6-0.4,1.2-1.3,1.9-0.5c0.9,1-0.4,1.6-0.9,2
					c-2.8,2.2-5,4.8-7.1,7.6c-1.3,1.8-2.4,3.7-3.6,5.6c-0.9,1.3-1.9,1.6-2.5-0.2c-0.7-2.4-2-4.4-3.5-6.4c-0.4-0.5-0.8-1.2-0.2-1.7
					c0.7-0.6,1.3,0,1.9,0.5C312.1,474,312.3,476.1,314,477.7z"/>
				<g>
					<path class="st17" d="M317.7,323.1c3.7,0,7.5,0.1,11.2,0c1.9,0,2.7,0.5,2.7,2.5c-0.2,7.8-0.3,15.6-0.3,23.4
						c0,1.5-0.5,2.1-2,2.1c-7.8-0.1-15.6-0.1-23.4-0.1c-1.8,0-2.2-0.9-2.2-2.4c0-7.7,0.1-15.4,0.1-23.1c0-1.9,0.8-2.6,2.7-2.5
						C310.2,323.1,313.9,323,317.7,323.1C317.7,323,317.7,323,317.7,323.1z M317.5,325.9C317.5,325.9,317.5,325.9,317.5,325.9
						c-3-0.1-6,0-9-0.1c-1.7-0.1-2.5,0.5-2.5,2.3c0.1,5.9,0.1,11.8,0,17.6c0,1.6,0.5,2.2,2.1,2.4c6.2,0.6,12.4,0.1,18.6,0.3
						c1.5,0,2.3-0.7,2.3-2.4c-0.1-6,0-12,0-18c0-1.7-0.6-2.3-2.3-2.2C323.8,325.9,320.6,325.9,317.5,325.9z"/>
					<g>
						<path class="st17" d="M373.9,300h-68.4c-1.5,0-2.8-1.3-2.8-2.8l0,0c0-1.5,1.3-2.8,2.8-2.8h68.4c1.5,0,2.8,1.3,2.8,2.8l0,0
							C376.7,298.8,375.4,300,373.9,300z"/>
						<path class="st17" d="M373.9,310.1h-68.4c-1.5,0-2.8-1.3-2.8-2.8v0c0-1.5,1.3-2.8,2.8-2.8h68.4c1.5,0,2.8,1.3,2.8,2.8v0
							C376.7,308.8,375.4,310.1,373.9,310.1z"/>
						<path class="st17" d="M340.3,320.1h-34.8c-1.5,0-2.7-1.2-2.7-2.7l0,0c0-1.5,1.2-2.7,2.7-2.7h34.8c1.5,0,2.7,1.2,2.7,2.7l0,0
							C343,318.9,341.8,320.1,340.3,320.1z"/>
					</g>
				</g>
				<g>
					<path class="st17" d="M317.7,390.6c3.7,0,7.5,0.1,11.2,0c1.9,0,2.7,0.5,2.7,2.5c-0.2,7.8-0.3,15.6-0.3,23.4
						c0,1.5-0.5,2.1-2,2.1c-7.8-0.1-15.6-0.1-23.4-0.1c-1.8,0-2.2-0.9-2.2-2.4c0-7.7,0.1-15.4,0.1-23.1c0-1.9,0.8-2.6,2.7-2.5
						C310.2,390.6,313.9,390.5,317.7,390.6C317.7,390.6,317.7,390.6,317.7,390.6z M317.5,393.5C317.5,393.4,317.5,393.4,317.5,393.5
						c-3-0.1-6,0-9-0.1c-1.7-0.1-2.5,0.5-2.5,2.3c0.1,5.9,0.1,11.8,0,17.6c0,1.6,0.5,2.2,2.1,2.4c6.2,0.6,12.4,0.1,18.6,0.3
						c1.5,0,2.3-0.7,2.3-2.4c-0.1-6,0-12,0-18c0-1.7-0.6-2.3-2.3-2.2C323.8,393.5,320.6,393.5,317.5,393.5z"/>
					<g>
						<path class="st17" d="M373.9,367.6h-68.4c-1.5,0-2.8-1.3-2.8-2.8l0,0c0-1.5,1.3-2.8,2.8-2.8h68.4c1.5,0,2.8,1.3,2.8,2.8l0,0
							C376.7,366.3,375.4,367.6,373.9,367.6z"/>
						<path class="st17" d="M373.9,377.7h-68.4c-1.5,0-2.8-1.3-2.8-2.8l0,0c0-1.5,1.3-2.8,2.8-2.8h68.4c1.5,0,2.8,1.3,2.8,2.8l0,0
							C376.7,376.4,375.4,377.7,373.9,377.7z"/>
						<path class="st17" d="M340.3,387.6h-34.8c-1.5,0-2.7-1.2-2.7-2.7l0,0c0-1.5,1.2-2.7,2.7-2.7h34.8c1.5,0,2.7,1.2,2.7,2.7l0,0
							C343,386.4,341.8,387.6,340.3,387.6z"/>
					</g>
				</g>
				<g>
					<path class="st17" d="M317.7,458.2c3.7,0,7.5,0.1,11.2,0c1.9,0,2.7,0.5,2.7,2.5c-0.2,7.8-0.3,15.6-0.3,23.4
						c0,1.5-0.5,2.1-2,2.1c-7.8-0.1-15.6-0.1-23.4-0.1c-1.8,0-2.2-0.9-2.2-2.4c0-7.7,0.1-15.4,0.1-23.1c0-1.9,0.8-2.6,2.7-2.5
						C310.2,458.2,313.9,458.1,317.7,458.2C317.7,458.1,317.7,458.2,317.7,458.2z M317.5,461C317.5,461,317.5,461,317.5,461
						c-3-0.1-6,0-9-0.1c-1.7-0.1-2.5,0.5-2.5,2.3c0.1,5.9,0.1,11.8,0,17.6c0,1.6,0.5,2.2,2.1,2.4c6.2,0.6,12.4,0.1,18.6,0.3
						c1.5,0,2.3-0.7,2.3-2.4c-0.1-6,0-12,0-18c0-1.7-0.6-2.3-2.3-2.2C323.8,461.1,320.6,461,317.5,461z"/>
					<g>
						<path class="st17" d="M373.9,435.2h-68.4c-1.5,0-2.8-1.3-2.8-2.8v0c0-1.5,1.3-2.8,2.8-2.8h68.4c1.5,0,2.8,1.3,2.8,2.8v0
							C376.7,433.9,375.4,435.2,373.9,435.2z"/>
						<path class="st17" d="M373.9,445.2h-68.4c-1.5,0-2.8-1.3-2.8-2.8l0,0c0-1.5,1.3-2.8,2.8-2.8h68.4c1.5,0,2.8,1.3,2.8,2.8l0,0
							C376.7,444,375.4,445.2,373.9,445.2z"/>
						<path class="st17" d="M340.3,455.2h-34.8c-1.5,0-2.7-1.2-2.7-2.7l0,0c0-1.5,1.2-2.7,2.7-2.7h34.8c1.5,0,2.7,1.2,2.7,2.7l0,0
							C343,454,341.8,455.2,340.3,455.2z"/>
					</g>
				</g>
			</g>
		</g>
		<g>
			<g>
				
					<rect x="262" y="269.1" transform="matrix(0.4172 0.9088 -0.9088 0.4172 448.9933 -109.3915)" class="st18" width="95.7" height="52.6"/>
				
					<rect x="275.7" y="278.6" transform="matrix(0.4172 0.9088 -0.9088 0.4172 448.9933 -109.3915)" class="st19" width="68.2" height="33.6"/>
			</g>
			<g>
				<path class="st20" d="M273.4,273.5c8,3.6,16,7.2,24.1,10.6c4.6,2,9.3,0.3,11.2-3.8c1.9-4.3,0.1-8.8-4.7-11.1
					c-8.9-4.2-13.9-5-23.3-10.8c-0.9-0.6-1.7-1.1-2.1-1.4c7.3-3.3,14.6-6.7,21.9-10c-5.1-6.3-10.5-12.4-15.3-18.9
					c-5.3-7.2-12.8-7.9-20.6-8.7c-10-1-19.9-2.1-29.9-3.3c-1.9-0.2-3.8-0.7-5.5-1.7c-2.2-0.9-3.3,0.3-4.2,2.1
					c-2.7,5.4-3.9,11.3-6.2,16.8c-1.5,3.6-2.6,7.4-4,11.2c-0.7,1.9-1.6,3.8-1,5.9c6.3,1.4,10.9,5.8,16,9.3
					c6.6,4.5,14.3,6.8,22.3,7.9c3.8,0.5,7.6,1,11.2,2.1c0.9,0.3,1.3,0.6,1.1,1.5C267.4,272,270.1,273.9,273.4,273.5z"/>
				<path class="st7" d="M77.4,205.3c3.3-6.7,6.4-13.5,9.6-20.3c3-6.6,6.1-13.2,9.1-19.8c0.7-1.7,1.5-1.9,3.2-1.3
					c11.9,4.2,23.8,8.3,35.7,12.5c27.9,9.7,55.7,19.5,83.6,29.1c2.6,0.9,3.7,2,2.5,4.6c0.3,0.6,0.3,1.3,0.1,1.9
					c-2,5.6-3.9,11.3-5.9,16.9c-0.2,0.6-0.5,1.2-1.1,1.5c0,0.2,0,0.3,0,0.5c-1,5.6-3.6,10.6-5.3,16c-0.7,2.2-1.8,4-3.4,5.5
					c-10.5-3.7-21-7.4-31.4-11.1c-17.6-6.1-35.1-12.3-52.7-18.4c-14.2-5-28.5-9.9-42.7-14.9C77.4,207.5,76.5,207.1,77.4,205.3z"/>
				<path class="st21" d="M221.2,210.1c-2.5,6.8-5,13.7-7.6,20.5c-2.6,7.3-4.7,14.7-8,21.7c1.8-1.6,3.7-2.4,6-0.7
					c1.1,0.8,1.7-0.2,2.1-1.1c3.3-9.5,6.6-19,9.9-28.4c0.7-2.1,1.8-4.1,2.6-6.2c0.6-1.6,0.5-4.2-1.4-4.8
					C223.7,210.6,222.6,210,221.2,210.1z"/>
				<path class="st22" d="M273.4,273.5c-2.1-0.8-4.3-1.5-6.3-2.4c-1-0.4-1.8-0.2-2.7,0.2c-2.3,4.9-0.8,7.9,4,10.1
					c2.7,1.2,5.1,3,7.9,3.9c-0.3-3.1-1.8-5.8-2.5-8.7C273.6,275.6,272.7,274.6,273.4,273.5z"/>
				<path class="st8" d="M296.1,274.5c-2.3,5-2.2,5.7,1.5,7.4c4.4,2.1,7.2,1.3,9-2.5c1.6-3.4,0.2-6.6-3.7-8.5
					C299.3,269.2,298.4,269.7,296.1,274.5z"/>
			</g>
		</g>
		<g>
			<g>
				
					<rect x="303.6" y="183.4" transform="matrix(0.2263 0.9741 -0.9741 0.2263 476.0795 -180.0858)" class="st18" width="95.7" height="52.6"/>
				
					<rect x="317.3" y="192.8" transform="matrix(0.2263 0.9741 -0.9741 0.2263 476.0795 -180.0858)" class="st19" width="68.2" height="33.6"/>
			</g>
			<g>
				<path class="st23" d="M344.3,191.2c-2.6-7.5-5.1-15.1-8-22.6c-0.4-1-0.6-1.8-0.4-2.3c0-0.1,0-0.1,0-0.2c0.1-1,0.9-1.7,1.9-1.8
					c3.9-1.6,8-2,12.1-2.8c3.2-0.6,6.3-1.4,9.5-2.2c0-0.4,0.1-0.8,0.1-1.2c0.4-6.2,0.7-12.4,1-18.6c0.2-4.3-1-8-3.7-11.4
					c-7.1-8.8-15.9-15.9-23.8-23.9c-5-5.1-10.4-9.6-13.2-16.6c-5.9-14.9-12.5-29.4-18.8-44.1c-2.9-6.9-6.2-13.7-8.6-20.8
					c-8.4-6.9-16.8-13.7-25.2-20.6c-4.8,5.8-9.1,12.1-14.4,17.4c-5.5,5.5-6.2,9.9-2,17.1c12.3,21.3,23.5,43.3,35.3,64.9
					c4,7.3,8.1,14.3,7.8,23c-0.1,2.1,0.6,4.4,1.3,6.5c2.5,7.8,7,14.3,11.8,20.6c2.4,3.1,4.9,6.3,5.9,10.2c1.3,4.2,4,7.8,5.5,12
					c3.9,8,7.5,16.2,11.2,24.4c1.1,2.5,3,4.2,5.4,5.3c2.9,1.4,5.6,0.4,7.8-1.5C344.6,200.5,344.9,192.7,344.3,191.2z"/>
				<path class="st24" d="M319.3,173.1c-0.4,0.1-0.7,0.3-0.8,0.5c-0.4,0.6,0.1,1.6,0.2,1.8c0.5,1.1,1.5,7,3.6,23.8
					c-2.6-0.5-5.9-1.7-7.7-4.5c-0.8-1.2-1.3-1.9-1.6-5c-0.2-2.9-2-6.3-3.4-9.2c-1.5-3.1-2.1-6.4-3.3-9.5c-1.8-4.6,1.1-8.1,6.8-9.2
					C316.3,164.9,317.1,169.4,319.3,173.1z"/>
				<path class="st25" d="M337.4,200.8c-0.9,0.2-2.1,0.5-3.1-0.1c-0.5-0.3-0.8-0.8-1.1-1.6c-1-2.9-2.4-5.9,0.3-8.4
					c0.9-0.8,1.9-1.3,3-1.4c1.7-0.2,3,0.7,3.4,0.9c2.1,1.4,3.6,4.5,2.4,7.2C341.4,199.8,338.8,200.5,337.4,200.8z"/>
			</g>
		</g>
		<g>
			<g>
				<path class="st26" d="M499.8,357c-6.8-5-13.5-9.9-20.3-14.9c-0.4,0-0.9,0-1.3,0v0H369.5v0.1c-2.9,0-5.7,0-8.6,0
					c-2.2,1.6-4.4,3.2-6.5,4.9c-4.7,3.7-9.9,6.8-14.4,10.8c0.9,0.6,1.9,0.5,2.9,0.5c51.7,0,103.3,0,155,0c1,0,2,0.1,2.9-0.5
					C500.5,357.7,500.2,357.3,499.8,357z"/>
				<rect x="345.7" y="376.4" class="st26" width="145.9" height="127.4"/>
				<path class="st15" d="M441.3,423.1c1.2,0.4,0.9,1.5,0.9,2.3c0,10.5,0,21,0,31.5c0,2.2-0.6,2.8-2.8,2.8c-14-0.1-28.1-0.1-42.1,0
					c-2,0-2.7-0.4-2.7-2.6c0.1-14.1,0.1-28.2,0-42.4c0-2,0.4-2.7,2.6-2.7c14.1,0.1,28.2,0.1,42.4,0.1c1.3,0,2.9-0.3,2.6,1.9
					c-0.5,2.9-2.8,4.1-4.8,5.8c-0.4,0.3-0.9,0-1.4-0.3c-0.9-1-2.2-1.1-3.4-1.1c-9.6,0-19.2,0-28.8,0c-2.7,0-2.9,0.3-2.9,3.1
					c0,9.8,0,19.5,0,29.3c0,2,0.6,2.8,2.7,2.8c9.8-0.1,19.5,0,29.3,0c2.1,0,2.7-0.8,2.7-2.8c0-7.1-0.2-14.2,0.1-21.3
					C436.6,426.4,438.7,424.6,441.3,423.1z"/>
				<path class="st27" d="M441.3,423.1c-1.7,1.7-3.3,3.4-5,5.1c-1,2.3-3.2,3.5-4.9,5.1c-3.8,3.5-7.7,6.9-11.7,10.2
					c-2.4,1.9-4.5,1.7-6.4-0.6c-2.6-3.2-4.9-6.6-7.3-10c-1.3-1.9-1.1-4,0.4-5.1c1.4-1,3.4-0.6,4.8,1.1c1.7,1.9,3.1,4.1,4.5,6.2
					c1,1.4,1.7,1.6,3.1,0.4c5.4-4.7,10.9-9.3,15.9-14.5c0.6-0.7,1.3-1.3,2.2-1.5c2.1-1.5,3.7-3.5,5.3-5.6c3.8,0.2,5.3,1.9,3.7,4.1
					c-1.1,1.5-2.2,3.3-3.8,4.4C441.7,422.6,441.5,422.9,441.3,423.1z"/>
				<path class="st28" d="M436.8,419.6c-3.1,4-7.1,7.1-10.8,10.5c-2.4,2.2-5,4.3-7.4,6.5c-1.3,1.3-2,1-3-0.4
					c-1.5-2.3-3.1-4.5-4.7-6.7c-1.1-1.5-2.5-2.4-4.2-1.2c-1.7,1.2-1.4,2.8-0.3,4.3c2.3,3.1,4.5,6.3,6.9,9.4c2.4,3.1,3.5,3.2,6.4,0.7
					c5.6-4.8,11.1-9.7,16.6-14.5c0,8,0,16,0.1,24c0,1.6-0.6,2-2,2c-10.7,0-21.5-0.1-32.2,0c-1.6,0-2.1-0.5-2.1-2.1
					c0.1-10.8,0.1-21.6,0-32.4c0-1.6,0.5-2.1,2.1-2.1c10.7,0.1,21.5,0.1,32.2,0C436.1,417.5,436.3,418.6,436.8,419.6z"/>
				<rect x="339.7" y="358" class="st19" width="161.1" height="33"/>
			</g>
			<g>
				<path class="st18" d="M449.4,329.4c7.4-12,14.9-23.9,22.3-35.9c0.9-1.5,0.9-2.5-0.7-3.5c-3.6-2.1-7.2-4.3-10.8-6.5
					c-10.9-6.7-21.9-13.5-32.8-20.2c-2.7-1.6-3.2-1.5-4.7,0.9c-3,4.9-6,9.8-9,14.8c-7.3,12-14.7,24-22,36
					c-3.9,6.4-7.8,12.8-11.7,19.2c-0.8,1.3-0.7,2,0.8,2.9c1.9,1.2,21,13.7,22.2,14.3c1.2,0.5,2.4,0.5,3.6,0.5c8.8,0,17.6,0,26.4,0
					c1.2,0,2.5,0,3.6-0.7c0.7-0.6,1.2-1.4,1.7-2.2C438.8,348.3,447.4,332.7,449.4,329.4z"/>
				<path class="st19" d="M429.9,279.8c0.2,0.1,0.5,0.3,0.7,0.5c7.2,4.4,14.3,8.9,21.6,13.3c1.8,1.1,2.3,2,1,4.1
					c-7.4,11.8-14.6,23.6-21.9,35.5c-2.5,4-5,8-7.3,12c-1.2,2.1-2.5,2-4.4,0.9c-6.2-3.8-12.5-7.6-18.8-11.4c-3.3-2-3.6-2.8-1.5-6.1
					c7.9-12.8,15.9-25.6,23.8-38.4c1.8-2.9,3.5-5.8,5.2-8.7C428.7,280.7,429,280.1,429.9,279.8z"/>
				<g>
					<g>
						<path class="st29" d="M453.3,278.7c-0.8-0.2-1.6-0.4-2.4-0.7c0.3-0.2,0.6-0.4,0.9-0.5c0.4-0.2,0.9-0.5,1.3-0.7
							c10.8-3.5,10.2,7.6,31.7-12c-1.9,2.5-6.3,7.7-14,11.1C463.3,279.2,456.4,279,453.3,278.7z"/>
					</g>
					<path class="st11" d="M501.4,243.8h-0.7c-22.4,0.1-61.8,14.9-71.1,18.6c-7.3,1.6,7.7,5.4,9.9,8.2c-2.2,4-6.4,7.4-8.4,11.2
						c0.1,0,0.1,0.1,0.2,0.1c0.5,0.2,0.9,0.5,1.2,0.7c0,0,0,0,0,0c4.6,3.7-3.6,10.7-7.9,8.4c-1.8,2.5,3.1,2.5,4.9,2.7
						c10.8,0,13.8-10,21.1-15.3c0.1-0.1,0.2-0.2,0.3-0.2c0.3-0.2,0.6-0.4,0.9-0.6c0.4-0.3,0.8-0.5,1.3-0.7
						c10.8-3.5,10.2,7.6,31.7-12c-0.1,0.2-0.2,0.3-0.4,0.5c-2.1,2.7-6.4,7.5-13.6,10.6c-8.7,3.7-16.5,2.8-19.5,2.3
						c0,0,0.1,0,0.1,0.1c1.7,1,4.1,2.5,7,4.4c6.4,4.4,9,7.2,12.1,6.4c1.2-0.3,1.7-1,3.3-2.5c1.2-1.2,6.5-5.9,11.8-8.8
						c3-1.6,7-2.8,12.8-2.9c0.2,0,0.4,0,0.6,0c2.4-0.1,3.8,0.2,4.6,0.1h0c0,0,0,0,0.1,0c1.1-0.2,1.2-1.1,1.3-4.8
						C505.2,261,503.5,251.9,501.4,243.8z"/>
					<path class="st30" d="M503.8,274.9c-0.4,1.7-0.5,3.5-1.2,5.2c-0.9,0.2-1.4-0.4-1.8-0.9c-0.9-1.1-1.8-2.2-2-3.7
						c0-0.2-0.2-0.4-0.3-0.7c0,0,0-0.1-0.1-0.1c1.4-0.2,2.8,0,4.2,0.1C503,274.8,503.3,274.9,503.8,274.9L503.8,274.9
						C503.7,274.9,503.8,274.9,503.8,274.9z"/>
					<path class="st8" d="M432.6,289c-0.6,0.8-1.4,1.8-2.7,2.4c-2.4,1-4.7-0.2-5.1-0.4c2.2-3.1,4.3-6.1,6.5-9.2
						c0.1,0,0.2,0.1,0.3,0.1c0.5,0.3,2.2,1.2,2.7,2.4C434.9,285.9,433.3,288,432.6,289z"/>
					<path class="st31" d="M590.3,273.6c0.2,0,0.3,0,0.5,0.1c0,0,0-0.1,0-0.1C590.6,273.6,590.4,273.6,590.3,273.6z M500.7,243.8
						c0.9,3.3,1.6,6.7,2.2,10.1c0.4,2.5,0.8,4.9,1.1,7.4c0.5,4.5,0.8,9.1-0.2,13.6c1.1-0.2,1.2-1.1,1.3-4.8
						c0.1-9.1-1.6-18.1-3.7-26.3H500.7z"/>
					<path class="st31" d="M669.9,267c-26.4,2.2-52.8,4.4-79.2,6.6c-0.2,0-0.3,0-0.5,0c-0.3-0.1-0.6-0.1-0.9-0.1
						c-3.1,0.5-6.2,0.5-9.3,0.8c-3,0.3-6,0.4-9,0.6c-3.1,0.2-6.1,0.5-9.2,0.7c-0.4,0-0.8,0.1-1.2,0.1c-3.4,0.2-6.8,0.6-10.3,0.8
						c-3.4,0.2-24.8,2-27.7,2.2c-3.1,0.3-13.5,1-14.4,1.1c-1.9,0.1-3.7,0.5-5.6,0.3c0.7-1.7,0.8-3.5,1.2-5.2c0,0,0,0,0,0
						c1.1-0.2,1.2-1.1,1.3-4.8c0.1-9.1-1.6-18.1-3.7-26.3h-0.7c0,0,0-0.1,0-0.1c-0.3-1.6-0.3-1.5,1.4-1.8c2.8-0.5,5.5-1.1,8.3-1.7
						c2.6-0.5,5.3-0.9,7.9-1.5c2.6-0.5,5.2-1.1,7.7-1.6c2-0.4,3.9-0.8,5.9-1.2c2.8-0.5,5.5-1,8.3-1.5c2.6-0.5,5.2-1,7.9-1.5
						c1.8-0.3,3.5-0.7,5.3-1l0-0.1l99.2-19.2C658.3,230.6,664.1,248.8,669.9,267z"/>
				</g>
				<path class="st31" d="M590.3,273.6c-9.5,0.8-18.9,1.6-28.4,2.4l-0.1-0.3c3.1-0.2,6.1-0.6,9.2-0.7c3-0.2,6-0.3,9-0.6
					c3.1-0.3,6.2-0.3,9.3-0.8C589.6,273.5,589.9,273.5,590.3,273.6z"/>
			</g>
		</g>
	</g>
</g>
</svg>
